<svg xmlns="http://www.w3.org/2000/svg" viewBox="0 0 400 300">
  <rect width="400" height="300" fill="#0a0a1a"/>
  <rect x="50" y="50" width="300" height="200" fill="#1a1a2e" stroke="#00f3ff" stroke-width="2"/>
  
  <!-- Pareja de tiburones -->
  <path d="M150,150 Q160,130 170,140 T190,150 L200,145 L205,155 L195,160 L190,175 L180,170 L170,180 L160,170 L150,175 L145,160 L130,155 L135,145 Z" 
        fill="#00f3ff"/>
  
  <path d="M250,150 Q260,130 270,140 T290,150 L300,145 L305,155 L295,160 L290,175 L280,170 L270,180 L260,170 L250,175 L245,160 L230,155 L235,145 Z" 
        fill="#ff00ff"/>
  
  <!-- Corazón entre ellos -->
  <path d="M220,140 Q230,120 240,140 T220,160 Q210,150 220,140" fill="#ff0066"/>
  
  <text x="200" y="270" text-anchor="middle" fill="#00f3ff" font-family="Arial" font-size="20">
    BODA CON TIBURONES
  </text>
</svg>